<?xml version="1.0" standalone="no"?><!DOCTYPE svg PUBLIC "-//W3C//DTD SVG 1.1//EN" "http://www.w3.org/Graphics/SVG/1.1/DTD/svg11.dtd"><svg t="1560908293906" class="icon" style="" viewBox="0 0 1024 1024" version="1.1" xmlns="http://www.w3.org/2000/svg" p-id="2116" xmlns:xlink="http://www.w3.org/1999/xlink" width="16" height="16"><defs><style type="text/css"></style></defs><path d="M807.127074 186.990435c-7.695491 0-15.390982 2.898302-21.187585 8.794847L195.085692 786.539137c-11.693149 11.693149-11.693149 30.682022 0 42.375171 5.896545 5.896545 13.492094 8.794847 21.187585 8.794847 7.695491 0 15.390982-2.898302 21.187586-8.794847l590.753855-590.753855c11.693149-11.693149 11.693149-30.682022 0-42.375171-5.796604-5.896545-13.492094-8.794847-21.087644-8.794847z" p-id="2117" fill="#ffffff"></path><path d="M216.872926 186.490728c-7.695491 0-15.390982 2.898302-21.187585 8.794847-11.693149 11.693149-11.693149 30.682022 0 42.375171l590.653913 590.653913c5.896545 5.896545 13.492094 8.794847 21.187586 8.794847s15.390982-2.898302 21.187585-8.794847c11.693149-11.693149 11.693149-30.682022 0-42.37517l-590.653914-590.653914c-5.796604-5.896545-13.492094-8.794847-21.187585-8.794847z" p-id="2118" fill="#ffffff"></path></svg>